<svg xmlns="http://www.w3.org/2000/svg" xmlns:xlink="http://www.w3.org/1999/xlink" viewBox="0,0,256,256" width="48px" height="48px" fill-rule="nonzero"><g fill="#131423" fill-rule="nonzero" stroke="none" stroke-width="1" stroke-linecap="butt" stroke-linejoin="miter" stroke-miterlimit="10" stroke-dasharray="" stroke-dashoffset="0" font-family="none" font-weight="none" font-size="none" text-anchor="none" style="mix-blend-mode: normal"><g transform="scale(5.33333,5.33333)"><path d="M36,5c-3.84823,0 -7,3.15178 -7,7c0,0.58577 0.19854,1.10946 0.33594,1.6543l-11.99023,5.99805c-1.28658,-1.57841 -3.1642,-2.65234 -5.3457,-2.65234c-3.84823,0 -7,3.15178 -7,7c0,3.84822 3.15177,7 7,7c2.1815,0 4.05912,-1.07394 5.3457,-2.65234l11.99023,5.99805c-0.13739,0.54483 -0.33594,1.06853 -0.33594,1.6543c0,3.84822 3.15177,7 7,7c3.84823,0 7,-3.15178 7,-7c0,-3.84822 -3.15177,-7 -7,-7c-2.1815,0 -4.05912,1.07394 -5.3457,2.65234l-11.99023,-5.99805c0.13739,-0.54483 0.33594,-1.06853 0.33594,-1.6543c0,-0.58577 -0.19854,-1.10946 -0.33594,-1.6543l11.99023,-5.99805c1.28658,1.57841 3.1642,2.65234 5.3457,2.65234c3.84823,0 7,-3.15178 7,-7c0,-3.84822 -3.15177,-7 -7,-7zM36,8c2.22691,0 4,1.77309 4,4c0,2.22691 -1.77309,4 -4,4c-2.22691,0 -4,-1.77309 -4,-4c0,-2.22691 1.77309,-4 4,-4zM12,20c2.22691,0 4,1.77309 4,4c0,2.22691 -1.77309,4 -4,4c-2.22691,0 -4,-1.77309 -4,-4c0,-2.22691 1.77309,-4 4,-4zM36,32c2.22691,0 4,1.77309 4,4c0,2.22691 -1.77309,4 -4,4c-2.22691,0 -4,-1.77309 -4,-4c0,-2.22691 1.77309,-4 4,-4z"></path></g></g></svg>